<mxfile host="app.diagrams.net" modified="2022-12-24T17:42:38.523Z" agent="5.0 (Windows NT 10.0; Win64; x64) AppleWebKit/537.36 (KHTML, like Gecko) Chrome/108.0.0.0 Safari/537.36" etag="d9KWwOXJwCROpj4byfgH" version="20.7.4" type="github">
  <diagram id="DWF1IbMSF92FvKAa8c_X" name="Page-1">
    <mxGraphModel dx="1266" dy="553" grid="1" gridSize="10" guides="1" tooltips="1" connect="1" arrows="1" fold="1" page="1" pageScale="1" pageWidth="827" pageHeight="1169" math="0" shadow="0">
      <root>
        <mxCell id="0" />
        <mxCell id="1" parent="0" />
        <mxCell id="CBMrQoPhKAL5R2a28fN6-14" value="&lt;p style=&quot;margin:0px;margin-top:4px;text-align:center;&quot;&gt;&lt;b&gt;Role Permission&lt;/b&gt;&lt;/p&gt;&lt;hr size=&quot;1&quot;&gt;&lt;p style=&quot;margin:0px;margin-left:4px;&quot;&gt;ID&lt;/p&gt;&lt;p style=&quot;margin:0px;margin-left:4px;&quot;&gt;PERMISSION_ID&lt;/p&gt;&lt;p style=&quot;margin:0px;margin-left:4px;&quot;&gt;ROLE_ID&lt;/p&gt;&lt;hr size=&quot;1&quot;&gt;&lt;p style=&quot;margin:0px;margin-left:4px;&quot;&gt;&lt;br&gt;&lt;/p&gt;" style="verticalAlign=top;align=left;overflow=fill;fontSize=12;fontFamily=Helvetica;html=1;" vertex="1" parent="1">
          <mxGeometry x="280" y="90" width="160" height="80" as="geometry" />
        </mxCell>
        <mxCell id="CBMrQoPhKAL5R2a28fN6-15" value="&lt;p style=&quot;margin:0px;margin-top:4px;text-align:center;&quot;&gt;&lt;b&gt;Comment&lt;/b&gt;&lt;/p&gt;&lt;hr size=&quot;1&quot;&gt;&lt;p style=&quot;margin:0px;margin-left:4px;&quot;&gt;ID&lt;/p&gt;&lt;p style=&quot;margin:0px;margin-left:4px;&quot;&gt;USER_ID&lt;/p&gt;&lt;p style=&quot;margin:0px;margin-left:4px;&quot;&gt;CONTENT_ID&lt;/p&gt;&lt;p style=&quot;margin:0px;margin-left:4px;&quot;&gt;TEXT&lt;/p&gt;&lt;p style=&quot;margin:0px;margin-left:4px;&quot;&gt;&lt;br&gt;&lt;/p&gt;" style="verticalAlign=top;align=left;overflow=fill;fontSize=12;fontFamily=Helvetica;html=1;" vertex="1" parent="1">
          <mxGeometry x="254" y="740" width="160" height="100" as="geometry" />
        </mxCell>
        <mxCell id="CBMrQoPhKAL5R2a28fN6-17" value="&lt;p style=&quot;margin:0px;margin-top:4px;text-align:center;&quot;&gt;&lt;b&gt;User&lt;/b&gt;&lt;/p&gt;&lt;hr size=&quot;1&quot;&gt;&lt;p style=&quot;margin:0px;margin-left:4px;&quot;&gt;ID&lt;/p&gt;&lt;p style=&quot;margin:0px;margin-left:4px;&quot;&gt;NAME&lt;/p&gt;&lt;p style=&quot;margin:0px;margin-left:4px;&quot;&gt;SURNAME&lt;/p&gt;&lt;p style=&quot;margin:0px;margin-left:4px;&quot;&gt;EMAIL&lt;/p&gt;&lt;p style=&quot;margin:0px;margin-left:4px;&quot;&gt;PASSWORD&lt;/p&gt;&lt;p style=&quot;margin:0px;margin-left:4px;&quot;&gt;GENDER&lt;/p&gt;&lt;p style=&quot;margin:0px;margin-left:4px;&quot;&gt;&lt;br&gt;&lt;/p&gt;" style="verticalAlign=top;align=left;overflow=fill;fontSize=12;fontFamily=Helvetica;html=1;" vertex="1" parent="1">
          <mxGeometry x="440" y="520" width="160" height="130" as="geometry" />
        </mxCell>
        <mxCell id="CBMrQoPhKAL5R2a28fN6-18" value="&lt;p style=&quot;margin:0px;margin-top:4px;text-align:center;&quot;&gt;&lt;b&gt;User Role&lt;/b&gt;&lt;/p&gt;&lt;hr size=&quot;1&quot;&gt;&lt;p style=&quot;margin:0px;margin-left:4px;&quot;&gt;ID&lt;/p&gt;&lt;p style=&quot;margin:0px;margin-left:4px;&quot;&gt;USER_ID&lt;/p&gt;&lt;p style=&quot;margin:0px;margin-left:4px;&quot;&gt;ROLE_ID&lt;/p&gt;" style="verticalAlign=top;align=left;overflow=fill;fontSize=12;fontFamily=Helvetica;html=1;" vertex="1" parent="1">
          <mxGeometry x="240" y="390" width="160" height="90" as="geometry" />
        </mxCell>
        <mxCell id="CBMrQoPhKAL5R2a28fN6-22" value="DATA MODEL" style="swimlane;whiteSpace=wrap;html=1;fontFamily=Times New Roman;fontSize=12;" vertex="1" parent="1">
          <mxGeometry x="40" y="40" width="710" height="980" as="geometry" />
        </mxCell>
        <mxCell id="CBMrQoPhKAL5R2a28fN6-19" value="&lt;p style=&quot;margin:0px;margin-top:4px;text-align:center;&quot;&gt;&lt;b&gt;Permission&lt;/b&gt;&lt;/p&gt;&lt;hr size=&quot;1&quot;&gt;&lt;p style=&quot;margin:0px;margin-left:4px;&quot;&gt;ID&lt;/p&gt;&lt;p style=&quot;margin:0px;margin-left:4px;&quot;&gt;NAME&lt;/p&gt;" style="verticalAlign=top;align=left;overflow=fill;fontSize=12;fontFamily=Helvetica;html=1;" vertex="1" parent="CBMrQoPhKAL5R2a28fN6-22">
          <mxGeometry x="340" y="190" width="160" height="85" as="geometry" />
        </mxCell>
        <mxCell id="CBMrQoPhKAL5R2a28fN6-20" value="&lt;p style=&quot;margin:0px;margin-top:4px;text-align:center;&quot;&gt;&lt;b&gt;Role&lt;/b&gt;&lt;/p&gt;&lt;hr size=&quot;1&quot;&gt;&lt;p style=&quot;margin:0px;margin-left:4px;&quot;&gt;ID&lt;/p&gt;&lt;p style=&quot;margin:0px;margin-left:4px;&quot;&gt;NAME&lt;/p&gt;" style="verticalAlign=top;align=left;overflow=fill;fontSize=12;fontFamily=Helvetica;html=1;" vertex="1" parent="CBMrQoPhKAL5R2a28fN6-22">
          <mxGeometry x="120" y="190" width="160" height="80" as="geometry" />
        </mxCell>
        <mxCell id="CBMrQoPhKAL5R2a28fN6-21" style="edgeStyle=orthogonalEdgeStyle;rounded=0;orthogonalLoop=1;jettySize=auto;html=1;exitX=0.5;exitY=1;exitDx=0;exitDy=0;fontFamily=Times New Roman;fontSize=12;" edge="1" parent="CBMrQoPhKAL5R2a28fN6-22" source="CBMrQoPhKAL5R2a28fN6-20" target="CBMrQoPhKAL5R2a28fN6-20">
          <mxGeometry relative="1" as="geometry" />
        </mxCell>
        <mxCell id="CBMrQoPhKAL5R2a28fN6-16" value="&lt;p style=&quot;margin:0px;margin-top:4px;text-align:center;&quot;&gt;&lt;b&gt;Content&lt;/b&gt;&lt;/p&gt;&lt;hr size=&quot;1&quot;&gt;&lt;p style=&quot;margin:0px;margin-left:4px;&quot;&gt;ID&lt;/p&gt;&lt;p style=&quot;margin:0px;margin-left:4px;&quot;&gt;TITLE&lt;/p&gt;&lt;p style=&quot;margin:0px;margin-left:4px;&quot;&gt;SUMMARY&lt;/p&gt;&lt;p style=&quot;margin:0px;margin-left:4px;&quot;&gt;CATEGORY&lt;/p&gt;&lt;p style=&quot;margin:0px;margin-left:4px;&quot;&gt;YEAR&lt;/p&gt;&lt;p style=&quot;margin:0px;margin-left:4px;&quot;&gt;TIME&lt;/p&gt;&lt;p style=&quot;margin:0px;margin-left:4px;&quot;&gt;&lt;br&gt;&lt;/p&gt;" style="verticalAlign=top;align=left;overflow=fill;fontSize=12;fontFamily=Helvetica;html=1;" vertex="1" parent="CBMrQoPhKAL5R2a28fN6-22">
          <mxGeometry x="480" y="700" width="160" height="130" as="geometry" />
        </mxCell>
        <mxCell id="CBMrQoPhKAL5R2a28fN6-24" value="" style="endArrow=classic;html=1;rounded=0;fontFamily=Times New Roman;fontSize=12;exitX=0.5;exitY=1;exitDx=0;exitDy=0;entryX=0.5;entryY=0;entryDx=0;entryDy=0;" edge="1" parent="1" source="CBMrQoPhKAL5R2a28fN6-14" target="CBMrQoPhKAL5R2a28fN6-19">
          <mxGeometry width="50" height="50" relative="1" as="geometry">
            <mxPoint x="480" y="170" as="sourcePoint" />
            <mxPoint x="530" y="170" as="targetPoint" />
          </mxGeometry>
        </mxCell>
        <mxCell id="CBMrQoPhKAL5R2a28fN6-25" value="" style="endArrow=classic;html=1;rounded=0;fontFamily=Times New Roman;fontSize=12;entryX=0.5;entryY=0;entryDx=0;entryDy=0;exitX=0.5;exitY=1;exitDx=0;exitDy=0;" edge="1" parent="1" source="CBMrQoPhKAL5R2a28fN6-14" target="CBMrQoPhKAL5R2a28fN6-20">
          <mxGeometry width="50" height="50" relative="1" as="geometry">
            <mxPoint x="100" y="180" as="sourcePoint" />
            <mxPoint x="150" y="130" as="targetPoint" />
          </mxGeometry>
        </mxCell>
        <mxCell id="CBMrQoPhKAL5R2a28fN6-26" value="" style="endArrow=classic;html=1;rounded=0;fontFamily=Times New Roman;fontSize=12;exitX=0.5;exitY=0;exitDx=0;exitDy=0;entryX=0.5;entryY=1;entryDx=0;entryDy=0;" edge="1" parent="1" source="CBMrQoPhKAL5R2a28fN6-18" target="CBMrQoPhKAL5R2a28fN6-20">
          <mxGeometry width="50" height="50" relative="1" as="geometry">
            <mxPoint x="215" y="380" as="sourcePoint" />
            <mxPoint x="265" y="330" as="targetPoint" />
          </mxGeometry>
        </mxCell>
        <mxCell id="CBMrQoPhKAL5R2a28fN6-27" value="" style="endArrow=classic;html=1;rounded=0;fontFamily=Times New Roman;fontSize=12;exitX=0.5;exitY=1;exitDx=0;exitDy=0;entryX=0.5;entryY=0;entryDx=0;entryDy=0;" edge="1" parent="1" source="CBMrQoPhKAL5R2a28fN6-18" target="CBMrQoPhKAL5R2a28fN6-17">
          <mxGeometry width="50" height="50" relative="1" as="geometry">
            <mxPoint x="300" y="580" as="sourcePoint" />
            <mxPoint x="350" y="530" as="targetPoint" />
          </mxGeometry>
        </mxCell>
        <mxCell id="CBMrQoPhKAL5R2a28fN6-28" value="" style="endArrow=classic;html=1;rounded=0;fontFamily=Times New Roman;fontSize=12;exitX=0.5;exitY=0;exitDx=0;exitDy=0;entryX=0.5;entryY=1;entryDx=0;entryDy=0;" edge="1" parent="1" source="CBMrQoPhKAL5R2a28fN6-15" target="CBMrQoPhKAL5R2a28fN6-17">
          <mxGeometry width="50" height="50" relative="1" as="geometry">
            <mxPoint x="320" y="720" as="sourcePoint" />
            <mxPoint x="460" y="670" as="targetPoint" />
          </mxGeometry>
        </mxCell>
        <mxCell id="CBMrQoPhKAL5R2a28fN6-30" value="" style="endArrow=classic;html=1;rounded=0;fontFamily=Times New Roman;fontSize=12;exitX=1;exitY=0.5;exitDx=0;exitDy=0;entryX=0;entryY=0.5;entryDx=0;entryDy=0;" edge="1" parent="1" source="CBMrQoPhKAL5R2a28fN6-15" target="CBMrQoPhKAL5R2a28fN6-16">
          <mxGeometry width="50" height="50" relative="1" as="geometry">
            <mxPoint x="420" y="790" as="sourcePoint" />
            <mxPoint x="560" y="680" as="targetPoint" />
          </mxGeometry>
        </mxCell>
      </root>
    </mxGraphModel>
  </diagram>
</mxfile>
